<?xml version="1.0" encoding="UTF-8" standalone="no"?>
<!-- Created with Inkscape (http://www.inkscape.org/) -->

<svg
   xmlns:osb="http://www.openswatchbook.org/uri/2009/osb"
   xmlns:dc="http://purl.org/dc/elements/1.1/"
   xmlns:cc="http://creativecommons.org/ns#"
   xmlns:rdf="http://www.w3.org/1999/02/22-rdf-syntax-ns#"
   xmlns:svg="http://www.w3.org/2000/svg"
   xmlns="http://www.w3.org/2000/svg"
   xmlns:xlink="http://www.w3.org/1999/xlink"
   xmlns:sodipodi="http://sodipodi.sourceforge.net/DTD/sodipodi-0.dtd"
   xmlns:inkscape="http://www.inkscape.org/namespaces/inkscape"
   width="20.32mm"
   height="128.5mm"
   viewBox="0 0 20.320001 128.50002"
   version="1.1"
   id="svg8"
   inkscape:version="0.92.4 (5da689c313, 2019-01-14)"
   sodipodi:docname="OutSel8.svg"
   style="enable-background:new">
  <defs
     id="defs2">
    <linearGradient
       inkscape:collect="always"
       id="linearGradient872">
      <stop
         style="stop-color:#171717;stop-opacity:1"
         offset="0"
         id="stop868" />
      <stop
         style="stop-color:#484848;stop-opacity:1"
         offset="1"
         id="stop870" />
    </linearGradient>
    <linearGradient
       id="linearGradient860"
       osb:paint="gradient">
      <stop
         style="stop-color:#414141;stop-opacity:1;"
         offset="0"
         id="stop856" />
      <stop
         style="stop-color:#414141;stop-opacity:0;"
         offset="1"
         id="stop858" />
    </linearGradient>
    <linearGradient
       inkscape:collect="always"
       xlink:href="#linearGradient872"
       id="linearGradient874"
       x1="14.432555"
       y1="131.84087"
       x2="14.432555"
       y2="-42.821835"
       gradientUnits="userSpaceOnUse"
       gradientTransform="matrix(0.66691335,0,0,0.9974856,0.04451196,0.18979956)" />
  </defs>
  <sodipodi:namedview
     id="base"
     pagecolor="#ffffff"
     bordercolor="#666666"
     borderopacity="1.0"
     inkscape:pageopacity="0.0"
     inkscape:pageshadow="2"
     inkscape:zoom="1.979899"
     inkscape:cx="15.675097"
     inkscape:cy="299.91795"
     inkscape:document-units="mm"
     inkscape:current-layer="layer1"
     showgrid="true"
     units="mm"
     inkscape:snap-bbox="true"
     inkscape:snap-page="true"
     inkscape:bbox-nodes="true"
     inkscape:snap-bbox-edge-midpoints="true"
     inkscape:window-width="1920"
     inkscape:window-height="1051"
     inkscape:window-x="-9"
     inkscape:window-y="-9"
     inkscape:window-maximized="1"
     inkscape:snap-bbox-midpoints="true"
     inkscape:snap-nodes="false"
     inkscape:bbox-paths="true"
     inkscape:snap-object-midpoints="true"
     inkscape:snap-text-baseline="true"
     inkscape:snap-center="true"
     inkscape:pagecheckerboard="false"
     borderlayer="false"
     inkscape:showpageshadow="false"
     showborder="false"
     inkscape:snap-others="true"
     inkscape:snap-intersection-paths="true"
     inkscape:object-paths="true"
     inkscape:snap-midpoints="false"
     inkscape:snap-smooth-nodes="true"
     inkscape:snap-global="false"
     showguides="false">
    <inkscape:grid
       type="xygrid"
       id="grid1227" />
  </sodipodi:namedview>
  <metadata
     id="metadata5">
    <rdf:RDF>
      <cc:Work
         rdf:about="">
        <dc:format>image/svg+xml</dc:format>
        <dc:type
           rdf:resource="http://purl.org/dc/dcmitype/StillImage" />
        <dc:title />
      </cc:Work>
    </rdf:RDF>
  </metadata>
  <g
     inkscape:groupmode="layer"
     id="layer1"
     inkscape:label="Layer 1"
     style="display:inline;opacity:1">
    <rect
       id="rect47"
       width="20.32"
       height="128.5"
       x="0.13363476"
       y="-1.2877018e-13"
       style="opacity:1;fill:url(#linearGradient874);fill-opacity:1;stroke-width:0.21579951" />
    <path
       style="opacity:1;fill:#ffffff;fill-opacity:1;stroke:#ffffff;stroke-width:0.56473154;stroke-linecap:square;stroke-linejoin:miter;stroke-miterlimit:4;stroke-dasharray:none;stroke-opacity:1"
       d="m 2.283,0.28109717 c 0,127.93653283 0,127.93653283 0,127.93653283"
       id="path868"
       inkscape:connector-curvature="0" />
    <path
       style="display:inline;opacity:1;fill:#ffffff;fill-opacity:1;stroke:#ffffff;stroke-width:0.56473148;stroke-linecap:square;stroke-linejoin:miter;stroke-miterlimit:4;stroke-dasharray:none;stroke-opacity:1;enable-background:new"
       d="m 18.228193,0.28173292 c 0,127.93653708 0,127.93653708 0,127.93653708"
       id="path868-3"
       inkscape:connector-curvature="0" />
    <g
       aria-label="MANTRA"
       style="font-style:normal;font-weight:normal;font-size:10.58333302px;line-height:1.25;font-family:sans-serif;letter-spacing:0px;word-spacing:0px;fill:#000000;fill-opacity:1;stroke:none;stroke-width:0.26458332"
       id="text2287"
       transform="matrix(1.0256014,0,0,0.72540091,-5.4055108,34.038182)">
      <path
         d="m 10.703739,117.693 v 3.62544 H 9.8796718 v -2.44756 l -0.3291789,2.44756 H 8.9660325 l -0.3470934,-2.39158 v 2.39158 H 7.7948723 V 117.693 h 1.220425 q 0.053743,0.32694 0.1142049,0.77032 l 0.1298801,0.9226 0.214974,-1.69292 z"
         style="font-style:normal;font-variant:normal;font-weight:normal;font-stretch:condensed;font-size:4.58611107px;font-family:Impact;-inkscape-font-specification:'Impact, Condensed';font-variant-ligatures:normal;font-variant-caps:normal;font-variant-numeric:normal;font-feature-settings:normal;text-align:start;writing-mode:lr-tb;text-anchor:start;stroke-width:0.26458332"
         id="path2289"
         inkscape:connector-curvature="0" />
      <path
         d="m 12.710162,117.693 0.539674,3.62544 h -0.965143 l -0.04703,-0.65164 h -0.338136 l -0.05598,0.65164 h -0.97634 L 11.34642,117.693 Z m -0.499366,2.33112 q -0.07166,-0.61581 -0.143316,-1.52049 -0.143316,1.03904 -0.179145,1.52049 z"
         style="font-style:normal;font-variant:normal;font-weight:normal;font-stretch:condensed;font-size:4.58611107px;font-family:Impact;-inkscape-font-specification:'Impact, Condensed';font-variant-ligatures:normal;font-variant-caps:normal;font-variant-numeric:normal;font-feature-settings:normal;text-align:start;writing-mode:lr-tb;text-anchor:start;stroke-width:0.26458332"
         id="path2291"
         inkscape:connector-curvature="0" />
      <path
         d="m 15.51602,117.693 v 3.62544 h -0.826306 l -0.490409,-1.64813 v 1.64813 H 13.411067 V 117.693 h 0.788238 l 0.528477,1.63246 V 117.693 Z"
         style="font-style:normal;font-variant:normal;font-weight:normal;font-stretch:condensed;font-size:4.58611107px;font-family:Impact;-inkscape-font-specification:'Impact, Condensed';font-variant-ligatures:normal;font-variant-caps:normal;font-variant-numeric:normal;font-feature-settings:normal;text-align:start;writing-mode:lr-tb;text-anchor:start;stroke-width:0.26458332"
         id="path2293"
         inkscape:connector-curvature="0" />
      <path
         d="m 17.791162,117.693 v 0.72553 h -0.559828 v 2.89991 h -0.942751 v -2.89991 H 15.730995 V 117.693 Z"
         style="font-style:normal;font-variant:normal;font-weight:normal;font-stretch:condensed;font-size:4.58611107px;font-family:Impact;-inkscape-font-specification:'Impact, Condensed';font-variant-ligatures:normal;font-variant-caps:normal;font-variant-numeric:normal;font-feature-settings:normal;text-align:start;writing-mode:lr-tb;text-anchor:start;stroke-width:0.26458332"
         id="path2295"
         inkscape:connector-curvature="0" />
      <path
         d="m 18.006136,117.693 h 0.667315 q 0.667315,0 0.902443,0.0515 0.237367,0.0515 0.385161,0.26424 0.150034,0.2105 0.150034,0.67403 0,0.42323 -0.105247,0.56879 -0.105248,0.14555 -0.414273,0.17466 0.279914,0.0694 0.376204,0.18587 0.09629,0.11644 0.118684,0.21497 0.02463,0.0963 0.02463,0.5352 v 0.95618 h -0.875571 v -1.20475 q 0,-0.29111 -0.04702,-0.36053 -0.04479,-0.0694 -0.239607,-0.0694 v 1.63469 h -0.94275 z m 0.94275,0.62029 v 0.80615 q 0.158991,0 0.221692,-0.0425 0.06494,-0.0448 0.06494,-0.28439 v -0.1993 q 0,-0.17243 -0.0627,-0.22617 -0.06046,-0.0537 -0.223931,-0.0537 z"
         style="font-style:normal;font-variant:normal;font-weight:normal;font-stretch:condensed;font-size:4.58611107px;font-family:Impact;-inkscape-font-specification:'Impact, Condensed';font-variant-ligatures:normal;font-variant-caps:normal;font-variant-numeric:normal;font-feature-settings:normal;text-align:start;writing-mode:lr-tb;text-anchor:start;stroke-width:0.26458332"
         id="path2297"
         inkscape:connector-curvature="0" />
      <path
         d="m 22.106316,117.693 0.539674,3.62544 h -0.965143 l -0.04703,-0.65164 h -0.338136 l -0.05598,0.65164 h -0.97634 l 0.479213,-3.62544 z m -0.499366,2.33112 q -0.07166,-0.61581 -0.143316,-1.52049 -0.143316,1.03904 -0.179145,1.52049 z"
         style="font-style:normal;font-variant:normal;font-weight:normal;font-stretch:condensed;font-size:4.58611107px;font-family:Impact;-inkscape-font-specification:'Impact, Condensed';font-variant-ligatures:normal;font-variant-caps:normal;font-variant-numeric:normal;font-feature-settings:normal;text-align:start;writing-mode:lr-tb;text-anchor:start;stroke-width:0.26458332"
         id="path2299"
         inkscape:connector-curvature="0" />
    </g>
    <g
       aria-label="MULT8"
       style="font-style:normal;font-weight:normal;font-size:10.58333302px;line-height:1.25;font-family:sans-serif;letter-spacing:0px;word-spacing:0px;fill:#ffffff;fill-opacity:1;stroke:none;stroke-width:0.26458332"
       id="text926"
       transform="translate(4.2333335,2.244929)">
      <path
         d="m 12.838894,6.2728486 q 0,0.494247 -0.439094,0.808768 -0.436499,0.314521 -1.200369,0.314521 -0.428701,0 -0.735289,-0.08488 -0.306588,-0.08488 -0.5066494,-0.234643 -0.197464,-0.147275 -0.293597,-0.344475 -0.09353,-0.197199 -0.09353,-0.424354 0,-0.2795742 0.168883,-0.4942474 0.171481,-0.2171693 0.5897924,-0.3794223 V 5.4191389 Q 9.9912716,5.2693727 9.8327816,5.0422185 q -0.15849,-0.227154 -0.15849,-0.5266979 0,-0.4418273 0.4261044,-0.7238978 0.426104,-0.2820704 1.10943,-0.2820704 0.717103,0 1.122422,0.2571084 0.407917,0.2546123 0.407917,0.6814625 0,0.264597 -0.171481,0.4717816 -0.17148,0.2071845 -0.524836,0.351964 v 0.014976 q 0.40532,0.1472756 0.600184,0.3968956 0.194864,0.2496199 0.194864,0.5891041 z M 11.76584,4.5554633 q 0,-0.1897111 -0.153295,-0.3020401 -0.150696,-0.1123294 -0.402721,-0.1123294 -0.09353,0 -0.192267,0.022465 -0.09613,0.022466 -0.176677,0.064901 -0.07534,0.042436 -0.124715,0.1123294 -0.04937,0.067396 -0.04937,0.1547643 0,0.1472758 0.08574,0.2296503 0.08834,0.082375 0.285802,0.1647492 0.07275,0.029955 0.197463,0.074886 0.127312,0.042436 0.306587,0.097351 0.119512,-0.1347947 0.17148,-0.2421313 0.05196,-0.1073365 0.05196,-0.2645971 z m 0.08055,1.7598203 q 0,-0.1797263 -0.09353,-0.2720856 -0.09353,-0.092359 -0.384533,-0.2121769 -0.08574,-0.037444 -0.249427,-0.092359 -0.163686,-0.054917 -0.275409,-0.094856 -0.111724,0.097351 -0.202658,0.2371388 -0.08834,0.1372909 -0.08834,0.3095287 0,0.259605 0.192266,0.414369 0.194865,0.152269 0.506649,0.152269 0.08315,0 0.194865,-0.02246 0.111724,-0.02497 0.192267,-0.07489 0.09353,-0.05741 0.150694,-0.134795 0.05717,-0.07738 0.05717,-0.20968 z"
         style="font-style:normal;font-variant:normal;font-weight:bold;font-stretch:normal;font-size:4.23333311px;font-family:sans-serif;-inkscape-font-specification:'sans-serif, Bold';font-variant-ligatures:normal;font-variant-caps:normal;font-variant-numeric:normal;font-feature-settings:normal;text-align:start;writing-mode:lr-tb;text-anchor:start;fill:#ff0003;fill-opacity:1;stroke-width:0.32597601"
         id="path852"
         inkscape:connector-curvature="0" />
    </g>
    <g
       aria-label="SEL"
       style="font-style:normal;font-weight:normal;font-size:10.58333302px;line-height:1.25;font-family:sans-serif;letter-spacing:0px;word-spacing:0px;fill:#000000;fill-opacity:1;stroke:none;stroke-width:0.26458332"
       id="text874"
       transform="translate(-0.52916667)">
      <path
         d="m 6.8491795,9.2199684 q -0.3948079,0 -0.7048665,-0.068213 Q 5.8363215,9.0835426 5.6110122,8.9822568 L 5.7701756,8.2443174 h 0.086816 q 0.2129069,0.1943034 0.5002279,0.3017904 0.2873209,0.1054199 0.6180501,0.1054199 0.3389974,0 0.4981608,-0.09095 0.1591634,-0.093018 0.1591634,-0.2645833 0,-0.064079 -0.026872,-0.1095541 Q 7.5809177,8.1388975 7.5065037,8.0934222 7.4320896,8.047947 7.301865,8.0045388 7.1737075,7.9590635 6.9690688,7.9011859 6.7437596,7.8391742 6.5639256,7.7668272 6.3861587,7.6944802 6.2600682,7.5952615 6.1339777,7.4939757 6.0678319,7.361684 6.0037531,7.2293923 6.0037531,7.0454243 q 0,-0.4630209 0.4072103,-0.7379395 0.4092773,-0.2769856 1.1182779,-0.2769856 0.3410644,0 0.6428548,0.05581 0.3038574,0.055811 0.5146972,0.1508952 L 8.5358981,6.9462055 H 8.4511488 Q 8.2899183,6.7973774 8.025335,6.6981586 7.7628188,6.5968728 7.4506931,6.5968728 q -0.3059244,0 -0.4733561,0.088884 -0.1674316,0.088883 -0.1674316,0.2459798 0,0.072347 0.024805,0.1198893 0.024805,0.047542 0.1012858,0.093018 0.066146,0.041341 0.2087728,0.09095 0.1426269,0.047542 0.3348632,0.099219 0.5167643,0.1384928 0.7379394,0.3245279 0.2211752,0.1860352 0.2211752,0.504362 0,0.2666504 -0.1198894,0.469222 Q 8.1989678,8.8354958 7.988128,8.9615863 7.7669529,9.095945 7.4858331,9.1579567 7.2047133,9.2199684 6.8491795,9.2199684 Z"
         style="font-style:italic;font-variant:normal;font-weight:bold;font-stretch:normal;font-size:4.23333311px;font-family:sans-serif;-inkscape-font-specification:'sans-serif, Bold Italic';font-variant-ligatures:normal;font-variant-caps:normal;font-variant-numeric:normal;font-feature-settings:normal;text-align:start;writing-mode:lr-tb;text-anchor:start;fill:#ffffff;fill-opacity:1;stroke-width:0.26458332"
         id="path887"
         inkscape:connector-curvature="0" />
      <path
         d="M 11.669557,6.0863097 11.535198,6.6692198 H 10.098593 L 9.9704358,7.2190571 H 11.303688 L 11.167262,7.8040342 H 9.83401 L 9.654176,8.5812477 h 1.436605 L 10.958489,9.1641579 H 8.7281344 L 9.4392021,6.0863097 Z"
         style="font-style:italic;font-variant:normal;font-weight:bold;font-stretch:normal;font-size:4.23333311px;font-family:sans-serif;-inkscape-font-specification:'sans-serif, Bold Italic';font-variant-ligatures:normal;font-variant-caps:normal;font-variant-numeric:normal;font-feature-settings:normal;text-align:start;writing-mode:lr-tb;text-anchor:start;fill:#ffffff;fill-opacity:1;stroke-width:0.26458332"
         id="path889"
         inkscape:connector-curvature="0" />
      <path
         d="m 13.844101,9.1641579 h -2.222086 l 0.711067,-3.0778482 h 0.797884 l -0.572575,2.4825357 h 1.424203 z"
         style="font-style:italic;font-variant:normal;font-weight:bold;font-stretch:normal;font-size:4.23333311px;font-family:sans-serif;-inkscape-font-specification:'sans-serif, Bold Italic';font-variant-ligatures:normal;font-variant-caps:normal;font-variant-numeric:normal;font-feature-settings:normal;text-align:start;writing-mode:lr-tb;text-anchor:start;fill:#ffffff;fill-opacity:1;stroke-width:0.26458332"
         id="path891"
         inkscape:connector-curvature="0" />
    </g>
    <g
       aria-label="CV"
       style="font-style:normal;font-variant:normal;font-weight:normal;font-stretch:normal;font-size:3.52777767px;line-height:1.25;font-family:sans-serif;-inkscape-font-specification:'sans-serif, Normal';font-variant-ligatures:normal;font-variant-caps:normal;font-variant-numeric:normal;font-feature-settings:normal;text-align:start;letter-spacing:0px;word-spacing:0px;writing-mode:lr-tb;text-anchor:start;display:inline;opacity:1;fill:#000000;fill-opacity:1;stroke:none;stroke-width:0.26458332;enable-background:new"
       id="text880-2"
       transform="matrix(0,-0.96414367,0.96414367,0,-94.437702,113.58068)">
      <path
         d="m 9.4839354,102.84286 q -0.073109,0.0319 -0.132925,0.0598 -0.058487,0.0279 -0.1541929,0.0585 -0.081084,0.0252 -0.1767902,0.0425 -0.094377,0.0186 -0.2086923,0.0186 -0.2153385,0 -0.3921287,-0.0598 -0.175461,-0.0611 -0.3057275,-0.19008 -0.127608,-0.12628 -0.1993875,-0.32035 -0.07178,-0.1954 -0.07178,-0.45328 0,-0.24457 0.069121,-0.43731 0.069121,-0.19275 0.1993874,-0.32568 0.1262788,-0.12893 0.3043983,-0.19673 0.1794487,-0.0678 0.3974457,-0.0678 0.15951,0 0.3176907,0.0386 0.15951,0.0385 0.3535805,0.13559 v 0.31237 h -0.019939 q -0.1634977,-0.13692 -0.3243369,-0.19939 -0.1608393,-0.0625 -0.3442758,-0.0625 -0.1502052,0 -0.2711669,0.0492 -0.1196325,0.0478 -0.2140093,0.15021 -0.091718,0.0997 -0.143559,0.25255 -0.050512,0.15153 -0.050512,0.35092 0,0.20869 0.055829,0.3589 0.057158,0.15021 0.1462176,0.24458 0.093047,0.0984 0.2166677,0.14622 0.1249495,0.0465 0.2631915,0.0465 0.1900827,0 0.356239,-0.0651 0.1661562,-0.0651 0.3110444,-0.1954 h 0.01861 z"
         style="font-style:normal;font-variant:normal;font-weight:normal;font-stretch:normal;font-size:3.52777767px;font-family:sans-serif;-inkscape-font-specification:'sans-serif, Normal';font-variant-ligatures:normal;font-variant-caps:normal;font-variant-numeric:normal;font-feature-settings:normal;text-align:start;writing-mode:lr-tb;text-anchor:start;fill:#ffffff;fill-opacity:1;stroke-width:0.20417278"
         id="path912"
         inkscape:connector-curvature="0" />
      <path
         d="m 11.419323,101.00717 -0.720453,1.97925 h -0.350922 l -0.7204531,-1.97925 h 0.2818008 l 0.6207593,1.74131 0.62076,-1.74131 z"
         style="font-style:normal;font-variant:normal;font-weight:normal;font-stretch:normal;font-size:3.52777767px;font-family:sans-serif;-inkscape-font-specification:'sans-serif, Normal';font-variant-ligatures:normal;font-variant-caps:normal;font-variant-numeric:normal;font-feature-settings:normal;text-align:start;writing-mode:lr-tb;text-anchor:start;fill:#ffffff;fill-opacity:1;stroke-width:0.20417278"
         id="path914"
         inkscape:connector-curvature="0" />
    </g>
    <path
       style="fill:none;stroke:#ffffff;stroke-width:0.26754797px;stroke-linecap:butt;stroke-linejoin:miter;stroke-opacity:1"
       d="m 3.96875,42.061566 c 0,-29.856659 0,-29.856659 0,-29.856659"
       id="path888"
       inkscape:connector-curvature="0" />
    <path
       style="display:inline;opacity:1;fill:none;stroke:#ffffff;stroke-width:0.26552927px;stroke-linecap:butt;stroke-linejoin:miter;stroke-opacity:1;enable-background:new"
       d="m 3.96875,86.272012 c 0,-29.407813 0,-29.407813 0,-29.407813"
       id="path888-6"
       inkscape:connector-curvature="0" />
    <g
       aria-label="SEL"
       transform="rotate(-90,-1.0583333,-1.0583333)"
       style="font-style:normal;font-variant:normal;font-weight:normal;font-stretch:normal;font-size:2.82222223px;line-height:1.25;font-family:sans-serif;-inkscape-font-specification:'sans-serif, Normal';font-variant-ligatures:normal;font-variant-caps:normal;font-variant-numeric:normal;font-feature-settings:normal;text-align:start;letter-spacing:0px;word-spacing:0px;writing-mode:lr-tb;text-anchor:start;display:inline;opacity:1;fill:#000000;fill-opacity:1;stroke:none;stroke-width:0.26458332;enable-background:new"
       id="text880-9">
      <path
         d="m -96.847002,4.4608569 q 0,0.1198893 -0.0565,0.2370225 -0.05512,0.1171333 -0.155718,0.1984375 -0.110243,0.088194 -0.257694,0.1378039 -0.146072,0.049609 -0.352777,0.049609 -0.221864,0 -0.399631,-0.041341 -0.176389,-0.041341 -0.359668,-0.1226454 V 4.5779901 h 0.01929 q 0.155719,0.1295356 0.359668,0.1998155 0.20395,0.07028 0.383095,0.07028 0.253559,0 0.394119,-0.095085 0.141938,-0.095085 0.141938,-0.2535591 0,-0.1364258 -0.06752,-0.2011935 -0.06615,-0.064768 -0.202572,-0.1005968 -0.103353,-0.027561 -0.22462,-0.045475 -0.119889,-0.017914 -0.254937,-0.045475 -0.272852,-0.057878 -0.405143,-0.1970594 -0.130914,-0.1405599 -0.130914,-0.3651801 0,-0.2576932 0.21773,-0.4216797 0.21773,-0.1653646 0.552593,-0.1653646 0.216352,0 0.396875,0.041341 0.180523,0.041341 0.319705,0.1019749 v 0.3224609 h -0.01929 q -0.117134,-0.099219 -0.308681,-0.1639866 -0.190169,-0.066146 -0.389985,-0.066146 -0.219108,0 -0.352777,0.09095 -0.132292,0.090951 -0.132292,0.2342665 0,0.1281576 0.06615,0.2011936 0.06615,0.073036 0.232888,0.1116211 0.0882,0.019293 0.250803,0.046853 0.162609,0.027561 0.275608,0.0565 0.228754,0.060634 0.344509,0.183279 0.115756,0.1226454 0.115756,0.3431316 z"
         style="font-style:normal;font-variant:normal;font-weight:normal;font-stretch:normal;font-size:2.82222223px;font-family:sans-serif;-inkscape-font-specification:'sans-serif, Normal';font-variant-ligatures:normal;font-variant-caps:normal;font-variant-numeric:normal;font-feature-settings:normal;text-align:start;writing-mode:lr-tb;text-anchor:start;fill:#ffffff;fill-opacity:1;stroke-width:0.26458332"
         id="path923"
         inkscape:connector-curvature="0" />
      <path
         d="m -95.056931,5.0465231 h -1.351855 V 2.9946242 h 1.351855 v 0.2425347 h -1.079004 v 0.5622396 h 1.079004 v 0.2425347 h -1.079004 v 0.7620552 h 1.079004 z"
         style="font-style:normal;font-variant:normal;font-weight:normal;font-stretch:normal;font-size:2.82222223px;font-family:sans-serif;-inkscape-font-specification:'sans-serif, Normal';font-variant-ligatures:normal;font-variant-caps:normal;font-variant-numeric:normal;font-feature-settings:normal;text-align:start;writing-mode:lr-tb;text-anchor:start;fill:#ffffff;fill-opacity:1;stroke-width:0.26458332"
         id="path925"
         inkscape:connector-curvature="0" />
      <path
         d="m -93.324737,5.0465231 h -1.298112 V 2.9946242 h 0.272852 v 1.8093642 h 1.02526 z"
         style="font-style:normal;font-variant:normal;font-weight:normal;font-stretch:normal;font-size:2.82222223px;font-family:sans-serif;-inkscape-font-specification:'sans-serif, Normal';font-variant-ligatures:normal;font-variant-caps:normal;font-variant-numeric:normal;font-feature-settings:normal;text-align:start;writing-mode:lr-tb;text-anchor:start;fill:#ffffff;fill-opacity:1;stroke-width:0.26458332"
         id="path927"
         inkscape:connector-curvature="0" />
    </g>
    <g
       aria-label="IN"
       transform="rotate(-90,0.26458333,0.26458333)"
       style="font-style:normal;font-variant:normal;font-weight:normal;font-stretch:normal;font-size:2.46944451px;line-height:1.25;font-family:sans-serif;-inkscape-font-specification:'sans-serif, Normal';font-variant-ligatures:normal;font-variant-caps:normal;font-variant-numeric:normal;font-feature-settings:normal;text-align:start;letter-spacing:0px;word-spacing:0px;writing-mode:lr-tb;text-anchor:start;fill:#000000;fill-opacity:1;stroke:none;stroke-width:0.26458332"
       id="text868">
      <path
         d="m -113.71216,4.8555908 h -0.709 V 4.6723117 h 0.23512 V 3.2434583 h -0.23512 v -0.183279 h 0.709 v 0.183279 h -0.23513 v 1.4288534 h 0.23513 z"
         style="font-style:normal;font-variant:normal;font-weight:normal;font-stretch:normal;font-size:2.46944451px;font-family:sans-serif;-inkscape-font-specification:'sans-serif, Normal';font-variant-ligatures:normal;font-variant-caps:normal;font-variant-numeric:normal;font-feature-settings:normal;text-align:start;writing-mode:lr-tb;text-anchor:start;fill:#ffffff;fill-opacity:1;stroke-width:0.26458332"
         id="path915"
         inkscape:connector-curvature="0" />
      <path
         d="m -111.93363,4.8555908 h -0.29542 l -0.85128,-1.6061035 v 1.6061035 h -0.22307 V 3.0601793 h 0.37017 l 0.77653,1.4662326 V 3.0601793 h 0.22307 z"
         style="font-style:normal;font-variant:normal;font-weight:normal;font-stretch:normal;font-size:2.46944451px;font-family:sans-serif;-inkscape-font-specification:'sans-serif, Normal';font-variant-ligatures:normal;font-variant-caps:normal;font-variant-numeric:normal;font-feature-settings:normal;text-align:start;writing-mode:lr-tb;text-anchor:start;fill:#ffffff;fill-opacity:1;stroke-width:0.26458332"
         id="path917"
         inkscape:connector-curvature="0" />
    </g>
    <g
       aria-label="OUTPUTS"
       transform="matrix(0,-1.0644583,0.98655839,0,-0.07436903,-1.0651213)"
       style="font-style:normal;font-variant:normal;font-weight:normal;font-stretch:normal;font-size:2.56494713px;line-height:1.25;font-family:sans-serif;-inkscape-font-specification:'sans-serif, Normal';font-variant-ligatures:normal;font-variant-caps:normal;font-variant-numeric:normal;font-feature-settings:normal;text-align:start;letter-spacing:0px;word-spacing:0px;writing-mode:lr-tb;text-anchor:start;display:inline;opacity:1;fill:#000000;fill-opacity:1;stroke:none;stroke-width:0.24046376;enable-background:new"
       id="text868-8">
      <path
         d="m -51.839949,3.3718587 q 0.11397,0.1252416 0.174085,0.3068418 0.06137,0.1816003 0.06137,0.4120448 0,0.2304444 -0.06262,0.4132971 -0.06137,0.1816003 -0.172833,0.3030846 -0.115223,0.126494 -0.273027,0.1903672 -0.156552,0.063873 -0.358191,0.063873 -0.196629,0 -0.358191,-0.065126 -0.160309,-0.065126 -0.273026,-0.1891147 -0.112718,-0.1239891 -0.174086,-0.304337 -0.06012,-0.1803478 -0.06012,-0.4120447 0,-0.2279397 0.06012,-0.4082875 0.06012,-0.1816003 0.175338,-0.3105991 0.110213,-0.1227367 0.273027,-0.1878623 0.164066,-0.065126 0.356938,-0.065126 0.200387,0 0.359444,0.066378 0.160309,0.065126 0.271774,0.1866099 z m -0.02254,0.7188866 q 0,-0.3632005 -0.162814,-0.5598298 -0.162814,-0.1978817 -0.444607,-0.1978817 -0.284299,0 -0.447113,0.1978817 -0.161561,0.1966293 -0.161561,0.5598298 0,0.3669577 0.165319,0.5623346 0.165318,0.1941244 0.443355,0.1941244 0.278036,0 0.442102,-0.1941244 0.165319,-0.1953769 0.165319,-0.5623346 z"
         style="font-style:normal;font-variant:normal;font-weight:normal;font-stretch:normal;font-size:2.56494713px;font-family:sans-serif;-inkscape-font-specification:'sans-serif, Normal';font-variant-ligatures:normal;font-variant-caps:normal;font-variant-numeric:normal;font-feature-settings:normal;text-align:start;writing-mode:lr-tb;text-anchor:start;fill:#ffffff;fill-opacity:1;stroke-width:0.24046376"
         id="path899"
         inkscape:connector-curvature="0" />
      <path
         d="m -49.807279,4.273598 q 0,0.2028913 -0.04509,0.3544336 -0.04383,0.1502898 -0.14528,0.2504831 -0.09644,0.095184 -0.225435,0.1390181 -0.128999,0.043835 -0.300579,0.043835 -0.175339,0 -0.30559,-0.046339 -0.130251,-0.046339 -0.219173,-0.1365133 -0.101445,-0.1026981 -0.146532,-0.2479783 -0.04384,-0.1452802 -0.04384,-0.3569384 V 3.1576957 h 0.247979 v 1.1284264 q 0,0.1515423 0.02004,0.2392114 0.02129,0.087669 0.07014,0.1590568 0.05511,0.081407 0.149038,0.1227367 0.09518,0.04133 0.22794,0.04133 0.134008,0 0.227939,-0.040077 0.09393,-0.04133 0.15029,-0.1239891 0.04884,-0.071388 0.06888,-0.1628141 0.02129,-0.092679 0.02129,-0.229192 V 3.1576957 h 0.247978 z"
         style="font-style:normal;font-variant:normal;font-weight:normal;font-stretch:normal;font-size:2.56494713px;font-family:sans-serif;-inkscape-font-specification:'sans-serif, Normal';font-variant-ligatures:normal;font-variant-caps:normal;font-variant-numeric:normal;font-feature-settings:normal;text-align:start;writing-mode:lr-tb;text-anchor:start;fill:#ffffff;fill-opacity:1;stroke-width:0.24046376"
         id="path901"
         inkscape:connector-curvature="0" />
      <path
         d="m -48.002548,3.3781208 h -0.666285 v 1.6444217 h -0.247978 V 3.3781208 h -0.666286 V 3.1576957 h 1.580549 z"
         style="font-style:normal;font-variant:normal;font-weight:normal;font-stretch:normal;font-size:2.56494713px;font-family:sans-serif;-inkscape-font-specification:'sans-serif, Normal';font-variant-ligatures:normal;font-variant-caps:normal;font-variant-numeric:normal;font-feature-settings:normal;text-align:start;writing-mode:lr-tb;text-anchor:start;fill:#ffffff;fill-opacity:1;stroke-width:0.24046376"
         id="path903"
         inkscape:connector-curvature="0" />
      <path
         d="m -46.529707,3.7212827 q 0,0.1239891 -0.04384,0.2304444 -0.04258,0.105203 -0.120231,0.1828527 -0.09644,0.096436 -0.22794,0.1452802 -0.131504,0.047592 -0.33189,0.047592 h -0.247979 V 5.0225425 H -47.74956 V 3.1576957 h 0.505976 q 0.167824,0 0.284298,0.028805 0.116475,0.027553 0.206649,0.087669 0.106455,0.071388 0.164066,0.177843 0.05886,0.1064554 0.05886,0.2692694 z m -0.257998,0.00626 q 0,-0.096436 -0.03381,-0.1678237 -0.03381,-0.071388 -0.102698,-0.1164747 -0.06012,-0.038825 -0.137766,-0.055106 -0.0764,-0.017534 -0.194124,-0.017534 h -0.245474 v 0.7451873 h 0.209154 q 0.15029,0 0.244221,-0.026301 0.09393,-0.027553 0.152795,-0.086417 0.05886,-0.060116 0.08266,-0.126494 0.02505,-0.066378 0.02505,-0.1490374 z"
         style="font-style:normal;font-variant:normal;font-weight:normal;font-stretch:normal;font-size:2.56494713px;font-family:sans-serif;-inkscape-font-specification:'sans-serif, Normal';font-variant-ligatures:normal;font-variant-caps:normal;font-variant-numeric:normal;font-feature-settings:normal;text-align:start;writing-mode:lr-tb;text-anchor:start;fill:#ffffff;fill-opacity:1;stroke-width:0.24046376"
         id="path905"
         inkscape:connector-curvature="0" />
      <path
         d="m -44.797616,4.273598 q 0,0.2028913 -0.04509,0.3544336 -0.04384,0.1502898 -0.145281,0.2504831 -0.09644,0.095184 -0.225434,0.1390181 -0.128999,0.043835 -0.30058,0.043835 -0.175338,0 -0.305589,-0.046339 -0.130252,-0.046339 -0.219173,-0.1365133 -0.101446,-0.1026981 -0.146533,-0.2479783 -0.04383,-0.1452802 -0.04383,-0.3569384 V 3.1576957 h 0.247978 v 1.1284264 q 0,0.1515423 0.02004,0.2392114 0.02129,0.087669 0.07014,0.1590568 0.05511,0.081407 0.149037,0.1227367 0.09518,0.04133 0.22794,0.04133 0.134008,0 0.22794,-0.040077 0.09393,-0.04133 0.150289,-0.1239891 0.04885,-0.071388 0.06888,-0.1628141 0.02129,-0.092679 0.02129,-0.229192 V 3.1576957 h 0.247979 z"
         style="font-style:normal;font-variant:normal;font-weight:normal;font-stretch:normal;font-size:2.56494713px;font-family:sans-serif;-inkscape-font-specification:'sans-serif, Normal';font-variant-ligatures:normal;font-variant-caps:normal;font-variant-numeric:normal;font-feature-settings:normal;text-align:start;writing-mode:lr-tb;text-anchor:start;fill:#ffffff;fill-opacity:1;stroke-width:0.24046376"
         id="path907"
         inkscape:connector-curvature="0" />
      <path
         d="m -42.992885,3.3781208 h -0.666285 v 1.6444217 h -0.247979 V 3.3781208 h -0.666285 V 3.1576957 h 1.580549 z"
         style="font-style:normal;font-variant:normal;font-weight:normal;font-stretch:normal;font-size:2.56494713px;font-family:sans-serif;-inkscape-font-specification:'sans-serif, Normal';font-variant-ligatures:normal;font-variant-caps:normal;font-variant-numeric:normal;font-feature-settings:normal;text-align:start;writing-mode:lr-tb;text-anchor:start;fill:#ffffff;fill-opacity:1;stroke-width:0.24046376"
         id="path909"
         inkscape:connector-curvature="0" />
      <path
         d="m -41.399812,4.4902659 q 0,0.1089601 -0.05135,0.2154154 -0.0501,0.1064554 -0.141523,0.1803479 -0.100194,0.080155 -0.234202,0.1252415 -0.132756,0.045087 -0.320619,0.045087 -0.201638,0 -0.3632,-0.037573 -0.160309,-0.037572 -0.326881,-0.111465 v -0.310599 h 0.01753 q 0.141523,0.117727 0.326881,0.1816002 0.185357,0.063873 0.348171,0.063873 0.230445,0 0.358191,-0.086417 0.128999,-0.086417 0.128999,-0.2304445 0,-0.1239892 -0.06137,-0.1828527 -0.06012,-0.058863 -0.184106,-0.091426 -0.09393,-0.025048 -0.204143,-0.04133 -0.10896,-0.016281 -0.231697,-0.04133 -0.247978,-0.052601 -0.36821,-0.1790954 -0.11898,-0.1277464 -0.11898,-0.3318901 0,-0.2342017 0.197882,-0.3832392 0.197882,-0.1502899 0.502219,-0.1502899 0.196629,0 0.360695,0.037573 0.164067,0.037573 0.290561,0.092679 v 0.2930652 h -0.01753 q -0.106456,-0.090174 -0.280541,-0.1490374 -0.172834,-0.060116 -0.354434,-0.060116 -0.199134,0 -0.320618,0.082659 -0.120232,0.082659 -0.120232,0.2129107 0,0.1164746 0.06012,0.1828527 0.06012,0.066378 0.211658,0.1014456 0.08016,0.017534 0.22794,0.042582 0.147785,0.025048 0.250483,0.051349 0.207901,0.055106 0.313104,0.1665713 0.105203,0.111465 0.105203,0.3118515 z"
         style="font-style:normal;font-variant:normal;font-weight:normal;font-stretch:normal;font-size:2.56494713px;font-family:sans-serif;-inkscape-font-specification:'sans-serif, Normal';font-variant-ligatures:normal;font-variant-caps:normal;font-variant-numeric:normal;font-feature-settings:normal;text-align:start;writing-mode:lr-tb;text-anchor:start;fill:#ffffff;fill-opacity:1;stroke-width:0.24046376"
         id="path911"
         inkscape:connector-curvature="0" />
    </g>
    <g
       aria-label="OUT"
       style="font-style:italic;font-variant:normal;font-weight:bold;font-stretch:normal;font-size:1.76388884px;line-height:1.25;font-family:sans-serif;-inkscape-font-specification:'sans-serif, Bold Italic';font-variant-ligatures:normal;font-variant-caps:normal;font-variant-numeric:normal;font-feature-settings:normal;text-align:start;letter-spacing:0px;word-spacing:0px;writing-mode:lr-tb;text-anchor:start;fill:#ffffff;fill-opacity:1;stroke:none;stroke-width:0.26458332"
       id="text862">
      <path
         d="m 3.9856664,5.3547999 q 0,0.1576131 -0.053399,0.3100586 -0.053399,0.1524454 -0.1550293,0.2661336 -0.1111043,0.1240234 -0.2592434,0.1903415 -0.1481391,0.065457 -0.3410645,0.065457 -0.2626885,0 -0.4116888,-0.13522 -0.1481392,-0.1360812 -0.1481392,-0.3737928 0,-0.1670872 0.056844,-0.3178101 0.056844,-0.1507229 0.1627808,-0.2652723 0.1033528,-0.1111043 0.2557983,-0.1774224 0.1524455,-0.066318 0.3324517,-0.066318 0.2635498,0 0.4116889,0.1360812 0.1490004,0.1360813 0.1490004,0.367764 z M 3.512827,5.792327 q 0.058567,-0.076653 0.091295,-0.1774224 0.03359,-0.1016303 0.03359,-0.2334052 0,-0.1378038 -0.066318,-0.2153185 -0.065457,-0.078376 -0.1877577,-0.078376 -0.080099,0 -0.1533068,0.037035 -0.072347,0.036173 -0.1334974,0.1111043 -0.059428,0.071486 -0.095601,0.1782837 -0.036173,0.1059367 -0.036173,0.2385728 0,0.1472779 0.067179,0.2222087 0.068041,0.074931 0.1877577,0.074931 0.082682,0 0.1593357,-0.04048 Q 3.455983,5.8681191 3.512827,5.792327 Z"
         style="font-style:italic;font-variant:normal;font-weight:bold;font-stretch:normal;font-size:1.76388884px;font-family:sans-serif;-inkscape-font-specification:'sans-serif, Bold Italic';font-variant-ligatures:normal;font-variant-caps:normal;font-variant-numeric:normal;font-feature-settings:normal;text-align:start;writing-mode:lr-tb;text-anchor:start;fill:#ffffff;fill-opacity:1;stroke-width:0.26458332"
         id="path864" />
      <path
         d="M 5.4868667,4.8776542 5.3008315,5.6786388 q -0.062873,0.2661337 -0.2127346,0.386712 -0.1498617,0.1197171 -0.434082,0.1197171 -0.2532146,0 -0.3832669,-0.090434 -0.1300524,-0.091295 -0.1300524,-0.2756076 0,-0.037896 0.00603,-0.076653 0.00603,-0.038757 0.012919,-0.070624 L 4.3439563,4.8776542 H 4.6781305 L 4.4938179,5.6726099 q -0.00603,0.024116 -0.010335,0.053399 -0.00345,0.028422 -0.00345,0.04737 0,0.08096 0.048231,0.1231621 0.049093,0.041341 0.1619195,0.041341 0.1093817,0 0.1765611,-0.060289 0.068041,-0.060289 0.097324,-0.1877577 l 0.188619,-0.8121812 z"
         style="font-style:italic;font-variant:normal;font-weight:bold;font-stretch:normal;font-size:1.76388884px;font-family:sans-serif;-inkscape-font-specification:'sans-serif, Bold Italic';font-variant-ligatures:normal;font-variant-caps:normal;font-variant-numeric:normal;font-feature-settings:normal;text-align:start;writing-mode:lr-tb;text-anchor:start;fill:#ffffff;fill-opacity:1;stroke-width:0.26458332"
         id="path866" />
      <path
         d="M 6.7426038,5.125701 H 6.3429728 L 6.1043999,6.1600909 H 5.7719482 L 6.0105211,5.125701 H 5.61089 l 0.056844,-0.2480468 h 1.1317138 z"
         style="font-style:italic;font-variant:normal;font-weight:bold;font-stretch:normal;font-size:1.76388884px;font-family:sans-serif;-inkscape-font-specification:'sans-serif, Bold Italic';font-variant-ligatures:normal;font-variant-caps:normal;font-variant-numeric:normal;font-feature-settings:normal;text-align:start;writing-mode:lr-tb;text-anchor:start;fill:#ffffff;fill-opacity:1;stroke-width:0.26458332"
         id="path869" />
    </g>
  </g>
</svg>
